<svg xmlns="http://www.w3.org/2000/svg" width="60.917" height="57.315" viewBox="0 0 60.917 57.315">
  <path id="cart" d="M62.3,17.57H15.619L11.851,2.138H1.379v2.2H10.1L20.931,48.675a5.507,5.507,0,1,0,7.1,5.266A5.436,5.436,0,0,0,26.9,50.635h15.6a5.441,5.441,0,0,0-1.135,3.306,5.553,5.553,0,1,0,5.552-5.512H23.156l-1.077-4.41h31.18l9.035-26.453ZM25.81,53.945a3.331,3.331,0,1,1-3.331-3.306A3.321,3.321,0,0,1,25.81,53.945Zm24.433,0a3.332,3.332,0,1,1-3.333-3.306A3.323,3.323,0,0,1,50.243,53.945Zm-28.7-12.126L16.157,19.776H59.2L51.668,41.819Z" transform="translate(-1.379 -2.138)" fill="#fff"/>
</svg>