<?xml version="1.0" encoding="iso-8859-1"?>
<!-- Generator: Adobe Illustrator 19.0.0, SVG Export Plug-In . SVG Version: 6.00 Build 0)  -->
<svg version="1.1" id="Capa_1" xmlns="http://www.w3.org/2000/svg" xmlns:xlink="http://www.w3.org/1999/xlink" x="0px" y="0px"
	 viewBox="0 0 512.023 512.023" style="enable-background:new 0 0 512.023 512.023;" xml:space="preserve">
<g>
	<path style="fill:#F0C419;" d="M420.029,437.23c-7.686-41.271-21.617-81.129-41.314-118.201
		c-14.655-28.687-32.1-55.86-52.083-81.126v-0.088c0.178-0.214,0.327-0.452,0.441-0.706c23.481-36.017,27.101-79.272,27.012-103.548
		c-0.001-6.368-0.325-12.732-0.971-19.068l27.807,13.948c4.205,2.11,9.326,0.558,11.652-3.531l27.543-48.199
		c2.11-3.617,1.329-8.226-1.855-10.946l-53.937-47.139c-7.371-6.456-16.178-11.057-25.688-13.418L317.805,0
		c-0.855,8.682-2.151,17.315-3.884,25.865c-18.508,6.874-38.176,10.082-57.91,9.446c-19.733,0.637-39.402-2.571-57.909-9.446
		c-1.733-8.55-3.029-17.183-3.884-25.865l-20.833,5.208c-9.51,2.361-18.317,6.962-25.688,13.418L93.76,65.766
		c-3.184,2.72-3.965,7.329-1.855,10.946l27.543,48.199c2.326,4.089,7.447,5.641,11.652,3.531l27.807-13.948
		c-0.646,6.335-0.97,12.699-0.971,19.068c-0.088,24.364,3.531,67.619,27.012,103.548c0.113,0.283,0.261,0.549,0.441,0.794
		c-11.411,14.301-21.907,29.308-31.427,44.932c-23.296,36.715-41.361,76.498-53.671,118.201
		c-6.326,21.493-10.35,43.598-12.006,65.942c0,0,39.371,39.283,123.851,44.403c14.614,0.934,29.276,0.816,43.873-0.353
		c114.759,8.828,167.724-44.05,167.724-44.05C423.038,457.003,421.801,447.072,420.029,437.23z"/>
	<g>
		<path style="fill:#3B97D3;" d="M201.281,202.24c5.601,6.122,7.043,14.981,3.673,22.564c-3.37,7.583-10.912,12.449-19.21,12.394
			c-0.268,0.014-0.537-0.015-0.795-0.088c-23.481-35.928-27.1-79.183-27.012-103.548c2.209-0.788,4.54-1.176,6.885-1.148
			c5.564,0.002,10.897,2.219,14.823,6.161c3.926,3.942,6.12,9.285,6.099,14.849c-0.007,2.097-0.334,4.181-0.972,6.179
			c1.538,1.087,2.984,2.297,4.326,3.619c3.225-1.849,6.877-2.823,10.594-2.825c11.285-0.034,20.568,8.878,20.997,20.154
			S212.535,201.418,201.281,202.24L201.281,202.24z"/>
		<path style="fill:#3B97D3;" d="M220.701,344.276c-0.015-9.492-5.102-18.253-13.338-22.972s-18.366-4.678-26.563,0.108
			c-1.701-1.671-3.531-3.206-5.473-4.59c0.817-2.539,1.234-5.189,1.236-7.857c0.046-13.13-9.6-24.282-22.599-26.13
			c-23.297,36.715-41.361,76.498-53.671,118.201c4.979,9.213,14.928,14.615,25.366,13.774s19.394-7.767,22.833-17.658
			c1.068-2.789,1.607-5.753,1.588-8.739c-0.018,2.987,0.52,5.95,1.588,8.739c3.527,10.125,12.823,17.116,23.529,17.693
			c10.706,0.578,20.701-5.371,25.297-15.058c4.596-9.687,2.884-21.191-4.335-29.118
			C210.015,369.708,220.748,358.164,220.701,344.276z M156.348,359.371c-2.525,2.546-6.341,3.312-9.653,1.937
			c-3.312-1.375-5.463-4.618-5.442-8.204c0.013-1.154,0.253-2.294,0.707-3.354c1.291-3.361,4.52-5.579,8.121-5.579
			s6.829,2.218,8.121,5.579c0.454,1.061,0.694,2.201,0.707,3.354C158.874,355.44,157.96,357.679,156.348,359.371z"/>
	</g>
	<path style="fill:#F29C1F;" d="M256.011,414.897v96.132c-14.597,1.169-29.259,1.287-43.873,0.353L256.011,414.897z"/>
	<g>
		<path style="fill:#3B97D3;" d="M378.715,319.029c-8.043-2.55-16.82-1.107-23.624,3.882s-10.818,12.927-10.804,21.364
			c0.002,2.667,0.419,5.318,1.236,7.857c-1.942,1.384-3.772,2.919-5.473,4.59c-9.418-5.53-21.265-4.713-29.835,2.058
			c-8.57,6.771-12.105,18.108-8.903,28.55c3.202,10.442,12.485,17.848,23.377,18.651c-7.225,7.927-8.941,19.435-4.345,29.126
			c4.597,9.691,14.595,15.642,25.305,15.062c10.71-0.58,20.007-7.575,23.531-17.705c1.068-2.789,1.607-5.753,1.589-8.739
			c-0.018,2.987,0.52,5.95,1.588,8.739c3.372,9.716,12.079,16.589,22.312,17.613c10.233,1.023,20.129-3.99,25.358-12.846
			C412.343,395.96,398.412,356.101,378.715,319.029z M377.038,394.681c-2.526,2.546-6.341,3.312-9.653,1.937
			s-5.463-4.618-5.442-8.204c0.013-1.154,0.253-2.294,0.707-3.354c1.291-3.361,4.52-5.579,8.121-5.579
			c3.601,0,6.829,2.218,8.121,5.579c0.454,1.061,0.694,2.201,0.707,3.354C379.564,390.751,378.65,392.989,377.038,394.681z"/>
		<path style="fill:#3B97D3;" d="M354.086,133.561c0.088,24.276-3.531,67.531-27.012,103.548c-0.258,0.073-0.527,0.103-0.795,0.088
			c-8.298,0.055-15.84-4.811-19.21-12.394c-3.37-7.583-1.928-16.441,3.673-22.564c-11.237-0.822-19.812-10.384-19.408-21.644
			c0.404-11.26,9.642-20.184,20.909-20.198c3.747-0.009,7.43,0.965,10.682,2.825c1.36-1.301,2.805-2.51,4.326-3.619
			c-0.638-1.998-0.965-4.082-0.972-6.179c-0.022-5.564,2.173-10.907,6.099-14.849c3.926-3.942,9.26-6.159,14.824-6.161
			C349.546,132.385,351.877,132.774,354.086,133.561z"/>
	</g>
	<path style="fill:#F29C1F;" d="M313.921,25.865c-6.18,32.574-21.804,85.716-57.91,97.721
		c-36.106-12.006-51.73-65.148-57.909-97.721c18.508,6.874,38.176,10.082,57.909,9.446
		C275.745,35.947,295.413,32.739,313.921,25.865z"/>
	<g>
		<path style="fill:#285680;" d="M158.908,353.103c0,4.875-3.952,8.828-8.828,8.828s-8.828-3.952-8.828-8.828
			c0.013-1.154,0.253-2.294,0.707-3.354c1.291-3.361,4.52-5.579,8.121-5.579s6.829,2.218,8.121,5.579
			C158.655,350.81,158.895,351.95,158.908,353.103z"/>
		<path style="fill:#285680;" d="M379.598,388.414c0,4.875-3.952,8.828-8.828,8.828s-8.828-3.952-8.828-8.828
			c0.013-1.154,0.253-2.294,0.707-3.354c1.291-3.361,4.52-5.579,8.121-5.579c3.601,0,6.829,2.218,8.121,5.579
			C379.345,386.12,379.585,387.26,379.598,388.414z"/>
	</g>
</g>
<g>
</g>
<g>
</g>
<g>
</g>
<g>
</g>
<g>
</g>
<g>
</g>
<g>
</g>
<g>
</g>
<g>
</g>
<g>
</g>
<g>
</g>
<g>
</g>
<g>
</g>
<g>
</g>
<g>
</g>
</svg>
