<svg xmlns="http://www.w3.org/2000/svg" width="41.165" height="60.86" viewBox="0 0 41.165 60.86">
  <path id="location-pin" d="M23.582.5A20.607,20.607,0,0,0,3,21.082c0,16.365,18.386,37.744,19.168,38.65l1.415,1.628L25,59.729c.782-.9,19.168-22.281,19.168-38.646A20.607,20.607,0,0,0,23.582.5Zm0,55.067c-4.289-5.329-16.84-22-16.84-34.485a16.84,16.84,0,0,1,33.68,0C40.423,33.555,27.871,50.238,23.582,55.567Zm0-45.191A11.227,11.227,0,1,0,34.809,21.6,11.24,11.24,0,0,0,23.582,10.376Zm0,18.711A7.485,7.485,0,1,1,31.067,21.6,7.492,7.492,0,0,1,23.582,29.087Z" transform="translate(-3 -0.5)" fill="#fe8a3e"/>
</svg>