<svg xmlns="http://www.w3.org/2000/svg" width="60.341" height="60.341" viewBox="0 0 60.341 60.341">
  <path id="user" d="M33.376,3.2A30.171,30.171,0,1,0,63.546,33.376,30.169,30.169,0,0,0,33.376,3.2Zm0,2.514A27.64,27.64,0,0,1,54.64,51.037c-2.757-1.151-9.267-3.41-13.294-4.6-.344-.108-.4-.125-.4-1.556a8.25,8.25,0,0,1,.96-3.377,17.31,17.31,0,0,0,1.342-4.584,10.338,10.338,0,0,0,1.978-4.777c.469-2.351.25-3.207-.061-4.009-.033-.085-.066-.167-.092-.252a26.326,26.326,0,0,1,.446-5.638,10.323,10.323,0,0,0-2.172-7.449c-1.325-1.7-3.862-3.775-8.5-4.065l-2.542,0a11.064,11.064,0,0,0-8.418,4.063,10.332,10.332,0,0,0-2.169,7.449,26.385,26.385,0,0,1,.45,5.629,1.809,1.809,0,0,1-.094.262c-.309.8-.531,1.658-.059,4.009A10.286,10.286,0,0,0,24,36.92,17.135,17.135,0,0,0,25.34,41.5a8.163,8.163,0,0,1,.552,3.429c0,1.431-.054,1.448-.375,1.549-4.167,1.231-10.8,3.627-13.271,4.709A27.635,27.635,0,0,1,33.376,5.719ZM14.066,53.15c2.832-1.155,8.475-3.169,12.184-4.263,2.155-.679,2.155-2.495,2.155-3.954a10.849,10.849,0,0,0-.79-4.5,14.244,14.244,0,0,1-1.165-4.188,1.241,1.241,0,0,0-.424-.837,7.492,7.492,0,0,1-1.542-3.756c-.365-1.823-.21-2.221-.061-2.608a5.16,5.16,0,0,0,.174-.509c.3-1.1-.035-4.728-.4-6.739a7.868,7.868,0,0,1,1.677-5.449,8.585,8.585,0,0,1,6.518-3.1l2.384,0a8.642,8.642,0,0,1,6.6,3.1A7.853,7.853,0,0,1,43.044,21.8c-.363,2.009-.7,5.636-.4,6.737.052.184.111.347.174.512.151.384.3.785-.059,2.608a7.485,7.485,0,0,1-1.545,3.756,1.266,1.266,0,0,0-.424.837,14.152,14.152,0,0,1-1.16,4.188,10.679,10.679,0,0,0-1.2,4.447c0,1.46,0,3.275,2.179,3.961,3.549,1.049,9.22,3,12.214,4.174a27.6,27.6,0,0,1-38.756.137Z" transform="translate(-3.205 -3.205)" fill="#0F5955"/>
</svg>
