<svg xmlns="http://www.w3.org/2000/svg" width="60.05" height="56.926" viewBox="0 0 60.05 56.926">
  <path id="cart" d="M61.429,17.465H15.417L11.7,2.138H1.379V4.327h8.6L20.653,48.36a5.481,5.481,0,1,0,5.881,1.947H41.908a5.456,5.456,0,1,0,4.353-2.191H22.846l-1.062-4.38H52.521l8.906-26.274ZM25.462,53.594a3.283,3.283,0,1,1-3.284-3.284A3.286,3.286,0,0,1,25.462,53.594Zm24.085,0a3.285,3.285,0,1,1-3.286-3.284A3.288,3.288,0,0,1,49.547,53.594ZM21.255,41.55,15.946,19.656H58.375L50.952,41.55h-29.7Z" transform="translate(-1.379 -2.138)" fill="#0f5955"/>
</svg>