<svg xmlns="http://www.w3.org/2000/svg" width="60.413" height="60.413" viewBox="0 0 60.413 60.413">
  <path id="help-alt" d="M30.206,0A30.206,30.206,0,1,0,60.413,30.206,30.24,30.24,0,0,0,30.206,0Zm0,56.859A26.653,26.653,0,1,1,56.859,30.206,26.681,26.681,0,0,1,30.206,56.859Zm4.115-13.436a3.667,3.667,0,1,1-3.664-3.667A3.668,3.668,0,0,1,34.321,43.422Zm3.568-28.444c1.592,2.008,2.4,4.719,1.955,6.592-.864,3.65-2.992,5.569-4.872,7.26-1.93,1.738-3.319,2.985-3.319,5.853H28.1c0-4.446,2.385-6.6,4.492-8.493,1.638-1.475,3.184-2.868,3.788-5.434A5.313,5.313,0,0,0,35.1,17.186,5.381,5.381,0,0,0,30.665,15.1c-6.322,0-6.642,5.132-6.656,5.718l-3.554-.1c.085-3.173,2.328-9.176,10.21-9.176a9.026,9.026,0,0,1,7.225,3.429Z" fill="#fe8a3e"/>
</svg>