<svg id="refund" xmlns="http://www.w3.org/2000/svg" width="60.166" height="49.224" viewBox="0 0 60.166 49.224">
  <path id="Path_112" data-name="Path 112" d="M52.139,24.433V13.425l6.017-5.37V26.479h2.006V5.895h-.009a.806.806,0,0,0-.067-.343A1.01,1.01,0,0,0,59.158,5H11.025a1.062,1.062,0,0,0-.709.262L2.295,12.421A.848.848,0,0,0,2,13.055V47.064a.953.953,0,0,0,1,.895H51.136a.953.953,0,0,0,1-.895V36.36a9.475,9.475,0,0,1,2.006,5.782c0,5.675-5.173,10.292-11.532,10.292a.9.9,0,1,0,0,1.79h2.006c9.676,0,17.549-7.026,17.549-15.662C62.166,32.33,58.057,26.952,52.139,24.433ZM50.721,12.16H32.5l6.017-5.37H56.737Zm-21.352.262a.846.846,0,0,0-.294.633V19.32H25.064V13.425L32.5,6.79h3.181ZM11.44,6.79H29.663l-6.017,5.37H5.423ZM4.006,46.169V13.95H23.058v6.265a.953.953,0,0,0,1,.895h6.017a.953.953,0,0,0,1-.895V13.95H50.133V23.7a19.353,19.353,0,0,0-5.515-.8h-1.5V18.425a.89.89,0,0,0-.543-.8,1.1,1.1,0,0,0-1.042.068L27.49,26.646a.841.841,0,0,0,0,1.456l14.039,8.95a1.11,1.11,0,0,0,1.042.068.888.888,0,0,0,.543-.8V31.859a12.274,12.274,0,0,1,7.019,2.487V46.169Zm48.181,4.506a11.433,11.433,0,0,0,3.963-8.534c0-6.662-6.073-12.082-13.537-12.082h-.5a.953.953,0,0,0-1,.895v3.631L29.8,27.374l11.31-7.211v3.631a.953.953,0,0,0,1,.895h2.507c8.571,0,15.543,6.223,15.543,13.872A13.726,13.726,0,0,1,52.187,50.675Z" transform="translate(-2 -5)" fill="#fe8a3e"/>
  <path id="Path_113" data-name="Path 113" d="M6,47H18.517v2.086H6Z" transform="translate(-1.828 -9.646)" fill="#fe8a3e"/>
  <path id="Path_114" data-name="Path 114" d="M6,43H18.517v2.086H6Z" transform="translate(-1.828 -9.203)" fill="#fe8a3e"/>
</svg>