<svg xmlns="http://www.w3.org/2000/svg" width="60.867" height="60.867" viewBox="0 0 60.867 60.867">
  <path id="notebook" d="M33.639,3.205H13.35C7.282,3.205,3.205,7.282,3.205,13.35V55.528c0,2,.747,8.544,10.363,8.544h50.5V3.2H33.639ZM31.1,5.741V30l-6.21-5.656-6.9,5.8V5.743H31.105Zm-17.753,0h2.11V35.6l9.367-7.88,8.815,8.025v-30h27.9V47.586H13.352a10.776,10.776,0,0,0-7.609,2.647V13.347c0-4.622,2.987-7.609,7.609-7.609Zm.219,55.8c-5.813,0-7.495-2.638-7.775-5.161,0-3.915,2.828-6.251,7.557-6.251H61.536V61.536Z" transform="translate(-3.205 -3.205)" fill="#fe8a3e"/>
</svg>