<svg xmlns="http://www.w3.org/2000/svg" width="60.702" height="61.268" viewBox="0 0 60.702 61.268">
  <path id="bell" d="M58.047,52.88a19.219,19.219,0,0,1-5.186-12.688V27.179A22.013,22.013,0,0,0,31.121,4.953,22.013,22.013,0,0,0,9.381,27.179V40.191c0,7.356-5.162,12.661-5.21,12.712L.839,56.275h60.7l-3.494-3.4ZM9.586,52.322a22.67,22.67,0,0,0,3.747-12.131V27.179A18.057,18.057,0,0,1,31.121,8.905,18.057,18.057,0,0,1,48.908,27.179V40.191a22.468,22.468,0,0,0,3.708,12.131ZM33.1,4.953H29.145V1H33.1Zm0,51.386H37.05a5.929,5.929,0,0,1-11.858,0h3.953a1.976,1.976,0,1,0,3.953,0Z" transform="translate(-0.839 -1)" fill="#fe8a3e"/>
</svg>